<svg xmlns="http://www.w3.org/2000/svg" width="27" height="56" viewBox="0 0 27 56">
  <defs>
    <pattern id="stitch" width="4" height="4" patternUnits="userSpaceOnUse">
      <circle cx="2" cy="2" r=".65" fill="#c48b9c" fill-opacity=".8"/>
    </pattern>
    <g id="heart">
      <path d="M0 10.5C-1.7 8.8-8 4.3-8 .2-8-4.2-2.6-5.8 0-2.3 2.6-5.8 8-4.2 8 .2 8 4.3 1.7 8.8 0 10.5Z"
        fill="#fffdfd" stroke="#bd8295" stroke-width=".8"/>
      <path d="M0 7.2C-1.3 5.9-5 3.1-5 .3-5-2.1-2.1-3 0-.8 2.1-3 5-2.1 5 .3 5 3.1 1.3 5.9 0 7.2Z"
        fill="#fff4f5" stroke="#d3a3b1" stroke-width=".55"/>
      <path d="M-6.5-1.5C-6.3-3.6-3.1-4.1-1.5-2.8M1.5-2.8C3.1-4.1 6.3-3.6 6.5-1.5"
        fill="none" stroke="#fff" stroke-width=".65" stroke-linecap="round"/>
    </g>
  </defs>
  <path d="M5 0Q1 3.5 5 7T5 14T5 21T5 28T5 35T5 42T5 49T5 56H22Q26 52.5 22 49T22 42T22 35T22 28T22 21T22 14T22 7T22 0Z"
    fill="#fffdfd" stroke="#bd8295" stroke-opacity=".8" stroke-width=".8"/>
  <path d="M5.5 1Q2.5 4.5 5.5 8T5.5 15T5.5 22T5.5 29T5.5 36T5.5 43T5.5 50T5.5 57H21.5Q24.5 53.5 21.5 50T21.5 43T21.5 36T21.5 29T21.5 22T21.5 15T21.5 8T21.5 1Z"
    fill="url(#stitch)" stroke="#d4a6b4" stroke-opacity=".8" stroke-width=".65"/>
  <path d="M8 0Q5 3.5 8 7T8 14T8 21T8 28T8 35T8 42T8 49T8 56M19 0Q22 3.5 19 7T19 14T19 21T19 28T19 35T19 42T19 49T19 56"
    fill="none" stroke="#fff" stroke-width="1.8"/>
  <path d="M8 0Q5 3.5 8 7T8 14T8 21T8 28T8 35T8 42T8 49T8 56M19 0Q22 3.5 19 7T19 14T19 21T19 28T19 35T19 42T19 49T19 56"
    fill="none" stroke="#c18a9c" stroke-opacity=".72" stroke-width=".55" stroke-dasharray="1 1.1"/>
  <g transform="translate(9.5 14) rotate(-90) scale(.52)"><use href="#heart"/></g>
  <g transform="translate(9.5 42) rotate(-90) scale(.52)"><use href="#heart"/></g>
</svg>
